<?xml version="1.0" encoding="utf-8"?>
<!-- Generator: Adobe Illustrator 22.0.1, SVG Export Plug-In . SVG Version: 6.00 Build 0)  -->
<svg version="1.1" id="Layer_1" xmlns="http://www.w3.org/2000/svg" xmlns:xlink="http://www.w3.org/1999/xlink" x="0px" y="0px"
	 viewBox="0 0 1200 1200" style="enable-background:new 0 0 1200 1200;" xml:space="preserve">
<style type="text/css">
	.st0{fill:#FFFFFF;}
</style>
<g>
	<path class="st0" d="M600,1124.1c-8,0-16-2-23.1-5.8L147.8,890.2c-16.1-8.6-26.1-25.2-26.1-43.5V353.3c0-18.2,10-34.9,26.1-43.5
		L576.9,81.7c7.1-3.8,15.1-5.8,23.1-5.8c8,0,16,2,23.1,5.8l429.1,228.1c16.1,8.6,26.1,25.2,26.1,43.5v493.5
		c0,18.2-10,34.9-26.1,43.5l-429.1,228.1C616,1122.1,608,1124.1,600,1124.1z M600,87.8c-6.1,0-12.2,1.5-17.5,4.4L153.3,320.3
		c-12.2,6.5-19.8,19.1-19.8,33v493.5c0,13.9,7.6,26.5,19.8,33l429.1,228.1c10.8,5.7,24.3,5.7,35.1,0l429.1-228.1
		c12.2-6.5,19.8-19.1,19.8-33V353.3c0-13.9-7.6-26.5-19.8-33L617.5,92.2C612.2,89.3,606.1,87.8,600,87.8z"/>
	<path class="st0" d="M600,1145.7c-11.6,0-23.1-2.9-33.3-8.3L137.6,909.3C114.4,897,100,873,100,846.7V353.3
		c0-26.3,14.4-50.3,37.6-62.6L566.7,62.6c10.2-5.4,21.7-8.3,33.3-8.3c11.6,0,23.1,2.9,33.3,8.3l429.1,228.1
		c23.2,12.3,37.6,36.3,37.6,62.6v493.5c0,26.3-14.4,50.3-37.6,62.6l-429.1,228.1C623.1,1142.8,611.6,1145.7,600,1145.7z M600,66.2
		c-9.6,0-19.2,2.4-27.7,6.9L143.2,301.2c-19.3,10.3-31.3,30.2-31.3,52.1v493.5c0,21.9,12,41.8,31.3,52.1l429.1,228.1
		c8.5,4.5,18.1,6.9,27.7,6.9c9.6,0,19.2-2.4,27.7-6.9l429.1-228.1c19.3-10.3,31.3-30.2,31.3-52.1V353.3c0-21.9-12-41.8-31.3-52.1
		L627.7,73.1C619.2,68.5,609.6,66.2,600,66.2z"/>
</g>
<path class="st0" d="M836.8,496.8c-0.2-2.3-1.4-4.3-3.2-5.6l-28.4-21.9c-0.7-0.6-1.6-0.9-2.5-1c-6.8-0.5-14.4-3.9-20.7-9.1
	c-6.6-5.6-8.2-10.1-9.9-16.5c-0.2-0.9-1.2-2.1-3.9-4.8c-34.4-34.8-76.5-40-98.6-40c-21.5,0-38.7,4.8-41.6,8.3
	c-0.8,1-0.7,1.8-0.5,2.4c0.9,2.5,6.6,3.5,19.2,5.6c16.6,2.7,39.4,6.5,51.4,16.5c8.5,7.1,4.6,17.1,4.1,18.4L681.9,473
	c-0.5,0.6-0.7,1.3-0.7,2.1c0.1,0.8,0.4,1.5,1,2l3.1,2.6L600,580.4l-85.3-100.8l3.1-2.6c0.6-0.5,1-1.2,1-2c0.1-0.8-0.2-1.5-0.7-2.1
	l-20.2-24.1c-0.5-1.2-4.4-11.2,4.1-18.4c11.9-10,34.7-13.7,51.4-16.5c12.7-2.1,18.3-3.1,19.2-5.6c0.2-0.5,0.3-1.4-0.5-2.4
	c-2.9-3.5-20.1-8.3-41.6-8.3c-22.1,0-64.3,5.2-98.6,40c-2.7,2.7-3.7,3.9-3.9,4.8c-1.6,6.3-3.2,10.9-9.9,16.5
	c-6.3,5.3-13.8,8.6-20.7,9.1c-0.9,0.1-1.8,0.4-2.5,1l-28.4,21.9c-1.8,1.4-2.9,3.4-3.2,5.6c-0.2,2.3,0.4,4.5,1.9,6.2l25.7,30.6
	c1.6,1.9,3.9,2.9,6.3,2.9c2.1,0,4-0.8,5.6-2.1l26.5-24.1c0.7-0.6,1.1-1.4,1.4-2.3c1.8-7.2,6.3-14.2,12.3-19.2
	c6.4-5.4,9.9-7,16.3-7.7c0.1,0,0.2,0,0.3,0c0.7,0,1.4,0.3,1.9,0.9l19.1,22.8c0.6,0.7,1.4,1,2.2,1c0.7,0,1.3-0.2,1.9-0.7l0.8-0.7
	L574,611.1L438,771.7c-3.6,4.3-3.1,10.5,1,14l17.1,14.4c1.7,1.4,3.9,2.2,6.2,2.2c3,0,5.8-1.3,7.8-3.7l130-156.3l130,156.3
	c2,2.3,4.8,3.7,7.8,3.7c2.3,0,4.4-0.8,6.2-2.2l17.1-14.4c4.1-3.5,4.6-9.7,1-14L626,611.1l88.8-106.8l0.8,0.7
	c0.5,0.4,1.2,0.7,1.9,0.7c0.9,0,1.7-0.4,2.2-1l19.1-22.8c0.5-0.6,1.2-0.9,1.9-0.9c0.1,0,0.2,0,0.3,0c6.4,0.7,9.9,2.4,16.3,7.7
	c6,5,10.4,12,12.3,19.2c0.2,0.9,0.7,1.7,1.4,2.3l26.5,24.1c1.5,1.4,3.5,2.2,5.6,2.1c2.4,0,4.8-1.1,6.3-2.9l25.7-30.6
	C836.4,501.3,837.1,499.1,836.8,496.8z"/>
<g>
	<g>
		<path class="st0" d="M471.7,587.3c0,7.2-4.5,12-9.8,17.4l-11,11.2c2.2-0.6,4.2-1,6.1-1h12.5c1.8,0,2.9,1.1,2.9,2.8v5h-33.4v-2.8
			c0-1.1,0.4-2.4,1.5-3.4l14.8-14.8c5-5.1,7.8-8.9,7.8-14.1c0-4.7-2.8-7.1-7.1-7.1c-4,0-6.6,2.2-7.6,5.6c-0.5,1.7-1.5,2.4-3,2.4
			c-0.3,0-0.7,0-1.1-0.1l-4.4-0.8c1.3-9.3,8-14.1,16.6-14.1C465.5,573.4,471.7,579,471.7,587.3z"/>
		<path class="st0" d="M494.8,623.2c-10.1,0-17.8-7.9-17.8-24.9c0-17,7.6-24.9,17.8-24.9c10.2,0,17.9,7.9,17.9,24.9
			C512.8,615.3,505,623.2,494.8,623.2z M494.8,580.3c-4.8,0-9.2,3.9-9.2,18s4.4,18,9.2,18c4.9,0,9.3-3.9,9.3-18
			S499.7,580.3,494.8,580.3z"/>
	</g>
	<g>
		<g>
			<g>
				<path class="st0" d="M586.7,449V461h8.9v7h-8.9v16h13.4v7h-22.2v-49.2h21.2v7H586.7z"/>
				<path class="st0" d="M628.1,455.7v-2c0-3.4-1.8-5.3-3.9-5.3c-2.2,0-3.9,1.6-3.9,3.9c0,2.1,0.4,3.7,2.5,6l8.8,10
					c3.5,4,5.7,6.7,5.7,12.5c0,7.1-6,11-13,11c-7.1,0-12.8-4-12.8-11v-5.1h8.8v4.6c0,3,1.7,4.5,3.9,4.5c2.2,0,3.9-1.6,3.9-4.5
					c0-2.6-1.1-4.6-2.9-6.7L618,466c-4.6-5.5-6.6-7-6.6-13.8c0-6.7,5.3-11,12.9-11c7.4,0,12.7,4.4,12.7,11v3.4H628.1z"/>
			</g>
		</g>
	</g>
	<g>
		<g>
			<g>
				<g>
					<path class="st0" d="M598.1,716.5h-9.1v42.2h-8.8v-42.2h-9v-7h26.8V716.5z"/>
					<path class="st0" d="M636.4,744.7c0,7.9-4.6,14-13.1,14h-13.1v-49.2h11.4c8.1,0,12.8,4.6,12.8,12.4c0,4.1-1.9,8.8-5.5,10.3
						C633.5,734.1,636.4,737.8,636.4,744.7z M619.1,728.2h0.4c6.3,0,7.3-1.3,7.3-6c0-3.5-1.3-5.6-4.4-5.6h-3.3V728.2z M622,751.7
						c3.5,0,6-3.1,6-7c0-5.3-1.6-9-7.2-9h-1.8v16H622z"/>
				</g>
			</g>
		</g>
	</g>
	<g>
		<path class="st0" d="M696.2,614.5h9.5v-27.4c0-1.1,0-2.2,0.1-3.4l-6.8,5.7c-0.6,0.5-1.2,0.6-1.7,0.6c-0.9,0-1.6-0.4-2-0.9
			l-2.5-3.5l14.4-12.2h6.6v41.1h8.5v6h-26V614.5z"/>
		<path class="st0" d="M760.9,573.5v3.5c0,2.1-0.6,3.3-1,4.1l-17.8,36.7c-0.7,1.5-2,2.7-4.3,2.7H732l18.2-36
			c0.7-1.5,1.6-2.7,2.5-3.8h-22.5c-1,0-1.9-0.8-1.9-1.9v-5.4H760.9z"/>
	</g>
</g>
<g>
	<path class="st0" d="M903.8,646.1l90.5,2.5l-90.5,2.5c-1.4,0-2.5-1.1-2.6-2.4c0-1.4,1.1-2.5,2.4-2.6
		C903.7,646.1,903.7,646.1,903.8,646.1z"/>
	<path class="st0" d="M296.2,651.1l-90.5-2.5l90.5-2.5c1.4,0,2.5,1.1,2.6,2.4c0,1.4-1.1,2.5-2.4,2.6
		C296.3,651.1,296.3,651.1,296.2,651.1z"/>
	<path class="st0" d="M903.8,548.9l90.5,2.5l-90.5,2.5c-1.4,0-2.5-1.1-2.6-2.4c0-1.4,1.1-2.5,2.4-2.6
		C903.7,548.9,903.7,548.9,903.8,548.9z"/>
	<path class="st0" d="M903.8,597.5l90.5,2.5l-90.5,2.5c-1.4,0-2.5-1.1-2.6-2.4c0-1.4,1.1-2.5,2.4-2.6
		C903.7,597.5,903.7,597.5,903.8,597.5z"/>
	<path class="st0" d="M296.2,553.9l-90.5-2.5l90.5-2.5c1.4,0,2.5,1.1,2.6,2.4c0,1.4-1.1,2.5-2.4,2.6
		C296.3,553.9,296.3,553.9,296.2,553.9z"/>
	<path class="st0" d="M296.2,602.5l-90.5-2.5l90.5-2.5c1.4,0,2.5,1.1,2.6,2.4c0,1.4-1.1,2.5-2.4,2.6
		C296.3,602.5,296.3,602.5,296.2,602.5z"/>
</g>
<g>
	<path class="st0" d="M262.1,729.2l-2.1,3.9c-5-1.8-8.7-5.6-10.9-12.1c-3.9-11.6,2-21.6,13.6-25.6c11.7-4,22.7,1.4,26.7,13.3
		c2,5.8,1.4,10.8-0.6,14.9l-4.2-1.3c-0.5-0.2-1-0.4-1.3-1.2c-0.6-1.6,2.1-4.1-0.1-10.4c-2.5-7.3-9.5-10.8-18-7.9
		c-8.8,3-12,9.9-9.8,16.5c1.3,3.9,2.9,6,5.8,7.6c0.4,0.2,0.8,0.6,1,1C262.4,728.4,262.3,728.8,262.1,729.2z"/>
	<path class="st0" d="M265,759.8c-5.4-11.3-0.9-22.7,10-27.9c10.9-5.2,22.6-1.5,28,9.8c5.4,11.2,0.9,22.7-10,27.9
		C282.1,774.7,270.4,771,265,759.8z M297.1,744.4c-3.5-7.3-10.6-9.4-18.8-5.5c-8.2,3.9-10.9,10.8-7.5,18c3.5,7.3,10.5,9.4,18.7,5.5
		C297.8,758.5,300.6,751.7,297.1,744.4z"/>
	<path class="st0" d="M316,769.8l-11.5,33.1c1-0.8,2.1-1.6,3-2.2l21.1-13.5l3.7,5.7l-34.7,22.3l-2.1-3.3c-0.7-1-0.8-1.8-0.3-3
		l11.4-33c-1,0.8-2,1.5-2.8,2l-21.3,13.7l-3.7-5.7l34.7-22.3l2.2,3.4C316.4,768.1,316.5,768.5,316,769.8z"/>
	<path class="st0" d="M344.2,819.5c-0.9,0.2-1.5,0-2-0.6c-1-1.2,0-4.6-3-8.2c-2.6-3.3-5.7-3.6-8-1.7c-6.1,4.9,9.1,17.1-1.6,25.7
		c-5.8,4.7-13.7,4.3-19.4-2.8c-3.3-4.1-4.8-9.4-4.3-13.9l4.3-0.6c0.7,0,1.4,0.2,1.8,0.8c1.2,1.5-0.3,5.6,3.2,10c2.7,3.4,6,4,9,1.6
		c6.8-5.5-9.6-16.6,2.1-26.1c4.7-3.8,12.3-3.6,17.7,3.1c3.1,3.8,4.5,8.1,4.1,12L344.2,819.5z"/>
	<path class="st0" d="M374.6,840.7l-4.5,4.4l-8.6-8.9l-25.1,24.3L331,855l25.1-24.3l-8.7-8.9l4.5-4.4L374.6,840.7z"/>
	<path class="st0" d="M366.6,866.9l-10.4,12.3l-5.9-4.9l26.5-31.5l9.6,8.1c8.6,7.3,9,14,4.5,19.3c-3.6,4.3-8.9,5.5-14.5,3.1
		c0.4,1,0.5,2.2,0.4,3.4l-1.9,18.3l-5.3-4.4c-1-0.9-1.4-1.8-1.2-3l1.9-15.7c0.1-1.2-0.1-1.9-1.3-2.8L366.6,866.9z M370.1,862.7
		l3.7,3.1c4.4,3.7,8.4,3.2,11.1,0c2.7-3.2,2.1-6.7-2.2-10.4l-3.7-3.2L370.1,862.7z"/>
	<path class="st0" d="M410.3,899.2l13.8-20.5l6.4,4.3l-13.8,20.5c-5.5,8.2-14.9,10.5-23.7,4.5c-8.8-5.9-10.2-15.5-4.7-23.6
		l13.8-20.5l6.4,4.3l-13.8,20.5c-3.5,5.2-2.9,10.6,2,13.9C401.6,905.8,406.8,904.4,410.3,899.2z"/>
	<path class="st0" d="M446.7,927.6l1.2,4.3c-4.9,2.1-10.2,2-16.2-1.2c-10.8-5.6-13.6-17-7.9-27.9c5.7-11,17.3-14.7,28.5-9
		c5.4,2.8,8.5,6.8,9.9,11.2l-3.9,2c-0.5,0.3-1.1,0.4-1.8,0c-1.5-0.8-1.3-4.4-7.2-7.4c-6.9-3.6-14.3-1.2-18.4,6.8
		c-4.2,8.2-1.8,15.5,4.4,18.7c3.7,1.9,6.2,2.3,9.5,1.4c0.5-0.1,1-0.1,1.4,0.1C446.3,926.9,446.5,927.2,446.7,927.6z"/>
	<path class="st0" d="M494.5,912.6l-2.3,5.9l-11.5-4.5l-12.8,32.5l-7.1-2.8l12.8-32.5l-11.6-4.6l2.3-5.9L494.5,912.6z"/>
	<path class="st0" d="M493.8,955.2l-7.4-2.3l12.2-39.4l7.3,2.3L493.8,955.2z"/>
	<path class="st0" d="M522.6,963c-12.2-2.6-18.6-13.1-16.1-24.9c2.5-11.8,12.6-18.8,24.9-16.3c12.2,2.6,18.5,13.1,16,24.9
		C544.9,958.6,534.8,965.6,522.6,963z M530.1,928.2c-7.9-1.7-13.9,2.7-15.8,11.5c-1.9,8.8,1.9,15.2,9.8,16.9
		c7.9,1.7,13.9-2.7,15.7-11.5C541.6,936.2,538,929.8,530.1,928.2z"/>
	<path class="st0" d="M561.7,928.6l19.3,29.2c0-1.3,0-2.6,0.1-3.7l2.1-25l6.7,0.6l-3.4,41.1l-3.9-0.3c-1.2-0.1-1.9-0.5-2.6-1.5
		l-19.2-29.1c0,1.2,0,2.5-0.1,3.5l-2.1,25.2l-6.7-0.6l3.4-41.1l4,0.3C560.5,927.3,560.9,927.5,561.7,928.6z"/>
	<path class="st0" d="M643,935.5l-4.4,1.4c-0.1,0-0.3,0.1-0.4,0.1c-0.7,0.1-1.2-0.2-1.6-1c-0.9-1.9-2.4-3.5-5.1-3.2
		c-3.2,0.3-4.8,2.8-4.5,5.6c0.2,2.3,1.3,4,4,6.3l12,10.3c1-2.5,1.5-5.3,1.5-8c0-0.9,0.4-1.5,1.3-1.6l4.4-0.4c0.5,5-0.5,9.7-2.8,13.8
		l9.5,8.1l-6.9,0.7c-1.4,0.1-2.2-0.1-3.3-1l-3.1-2.6c-3.3,3.3-7.6,5.5-12.8,6c-6.3,0.6-13.1-3.2-13.8-10.5c-0.5-5,2.6-9.6,7.2-12.3
		c-2.3-2.6-3.4-5.2-3.7-7.9c-0.6-5.7,3.2-10.9,10.5-11.6C637.7,926.8,642.2,930.9,643,935.5z M631.6,964.1c3.3-0.3,5.9-1.7,8-3.8
		l-11.9-10c-2.8,2.3-3.9,4.9-3.6,7.7C624.6,962.2,627.9,964.5,631.6,964.1z"/>
	<path class="st0" d="M689.4,943.2l4.3,15.5l-7.4,2.1l-11.1-39.7l12.1-3.4c10.8-3,16.6,0.4,18.5,7.1c1.5,5.4-0.5,10.5-5.6,13.8
		c1.1,0.3,2.1,0.8,3.1,1.6l14,11.9l-6.6,1.9c-1.3,0.4-2.3,0.1-3.2-0.7l-11.9-10.4c-0.9-0.8-1.6-1-3.1-0.6L689.4,943.2z M687.9,937.9
		l4.6-1.3c5.6-1.6,7.4-5.2,6.2-9.2c-1.1-4-4.4-5.5-9.8-4l-4.7,1.3L687.9,937.9z"/>
	<path class="st0" d="M733.1,901.7l2.2,5.7l-17,6.7l4.2,10.6l13.4-5.3l2.2,5.5l-13.4,5.3l4.2,10.9l17-6.7l2.2,5.7l-24.2,9.5
		l-15-38.4L733.1,901.7z"/>
	<path class="st0" d="M770,914.4c-0.2-1.5-0.3-2.9-0.3-4.3l-0.1-25.9c0-1.3,0.5-1.7,1.7-2.3l5.1-2.8l19.6,36.3l-5.9,3.2l-12.7-23.4
		c-0.5-0.9-1-2-1.5-3.1l0.2,26.5c0,1.2-0.5,2.2-1.6,2.8l-0.9,0.5c-1.1,0.6-2.2,0.5-3.2-0.2l-22.3-14.6c0.7,1,1.4,2.1,1.8,3
		l12.7,23.4l-5.9,3.2L737,900.5l5.1-2.8c1.2-0.6,1.8-0.9,2.9-0.2l21.7,14.3C767.9,912.6,768.9,913.5,770,914.4z"/>
	<path class="st0" d="M820.6,898.4c-10,7.4-22.1,5.2-29.3-4.5s-5.7-22,4.3-29.4c10-7.4,22.1-5.2,29.3,4.5
		C832,878.8,830.6,891,820.6,898.4z M799.4,869.8c-6.5,4.8-7.2,12.2-1.9,19.5c5.4,7.3,12.7,8.7,19.1,3.9c6.5-4.8,7.2-12.1,1.8-19.4
		C813.1,866.5,805.9,865,799.4,869.8z"/>
	<path class="st0" d="M855,869l-11.4,10.9L815.1,850l11.4-10.9c9-8.6,21-8.2,29.3,0.5C864.2,848.4,864,860.4,855,869z M830.7,843.6
		l-5.8,5.5l20,21l5.8-5.5c5.8-5.6,5.6-13-0.6-19.5C843.9,838.5,836.5,838,830.7,843.6z"/>
	<path class="st0" d="M860.7,801.9l4.7,3.9l-11.8,14l8.7,7.4l9.3-11l4.5,3.8l-9.3,11l8.9,7.5l11.8-14l4.7,4l-16.8,19.9l-31.5-26.6
		L860.7,801.9z"/>
	<path class="st0" d="M896.5,811.7l9.5-13.5l5.2,3.6l-13.9,19.8l-33.7-23.7l4.4-6.3L896.5,811.7z"/>
	<path class="st0" d="M919.1,788.7l-4,6.6l-35.3-21.3l4-6.6L919.1,788.7z"/>
	<path class="st0" d="M891.9,755.7l34.3-7.2c-1.3-0.5-2.4-1-3.4-1.5L900.3,736l3-6.1l37,18.2l-1.8,3.6c-0.5,1.1-1.1,1.6-2.4,1.8
		l-34.2,7.2c1.2,0.4,2.3,0.9,3.2,1.4l22.7,11.2l-3,6.1l-37-18.2l1.8-3.6C890.3,756.3,890.6,756,891.9,755.7z"/>
	<path class="st0" d="M946.4,710.1l-7.1-2.5l-1.7,4.9c-0.3,0.9-1.1,1.3-1.9,1l-4.1-1.4l4.5-12.9l15.7,5.5c1.5,5,1.2,9.9-1,16.3
		c-4,11.3-15.2,16.6-26.7,12.6c-11.7-4.1-17.1-14.8-12.8-27.2c2.2-6.3,5.9-10.2,10-12.4l2.5,3.2c0.5,0.6,0.7,1.3,0.4,2
		c-0.2,0.4-0.4,0.8-0.9,1.2c-2.2,1.8-4.4,3.6-6,8.4c-2.7,7.7,1,14.5,9.3,17.4c8.9,3.1,16-0.3,18.6-7.8
		C946.5,715.1,946.7,712.6,946.4,710.1z"/>
</g>
<g>
	<path class="st0" d="M305.1,442.1c-2-2.4-3.9-4.7-5.6-7.1l-30.2-45.3c-1.5-2.3-1.1-3.5,0.3-6l5.8-10.7l76.5,40.9l-6.7,12.5
		L295.6,400c-1.9-1-4-2.3-6.2-3.7l31,46.3c1.4,2.1,1.6,4.4,0.4,6.7l-1,2c-1.2,2.3-3.3,3.3-5.8,3.4l-56.1,0.1c2.5,1,4.8,2.1,6.7,3.1
		l49.4,26.4l-6.7,12.5l-76.5-40.9l5.8-10.7c1.3-2.5,2.1-3.6,4.9-3.6l54.7-0.1C299.1,441.5,302,441.8,305.1,442.1z"/>
	<path class="st0" d="M416.3,350.9l-8.9,8.7c-2,2-4.4,2.1-6.4,1.2l-17-8.1l-25.7,25.1l7.7,17.2c0.8,1.8,0.7,4.5-1.3,6.3l-9,8.8
		l-36.2-85.9l11.8-11.5L416.3,350.9z M353.2,366.6l19.8-19.3L345.3,334c-2.5-1.2-5.8-2.9-9.5-5c2,3.7,3.8,7,4.9,9.7L353.2,366.6z"/>
	<path class="st0" d="M427.8,263.1c0.1,2-0.5,3.1-1.9,3.9c-2.8,1.7-9.6-1.3-18.1,3.7c-7.6,4.5-9.3,10.7-6,16.2
		c8.4,14.2,38.3-13.8,53,11c8,13.5,4.9,29.8-11.6,39.6c-9.5,5.6-21,7.2-30.3,4.7l0.1-9c0.2-1.4,0.9-2.8,2.1-3.6
		c3.5-2,11.5,2.4,21.8-3.7c7.9-4.7,10.2-11.2,6-18.3c-9.3-15.8-37.5,15-53.7-12.3c-6.5-11-3.8-26.7,11.8-35.9
		c8.8-5.2,18.2-6.9,26.3-5L427.8,263.1z"/>
	<path class="st0" d="M516,306c-25.3,7.2-47.5-6-54.5-30.5c-7-24.5,4.9-47.5,30.1-54.7c25.2-7.2,47.4,6.1,54.4,30.6
		C553,275.9,541.2,298.8,516,306z M495.3,234c-16.3,4.7-23.3,18.7-18.1,37c5.2,18.3,18.6,26.5,34.9,21.8
		c16.3-4.7,23.1-18.6,17.9-36.9S511.7,229.3,495.3,234z"/>
	<path class="st0" d="M582.6,208.9l44.8,58.8c-0.3-2.8-0.3-5.5-0.3-7.9l0.7-52.7l14.2,0.2l-1.2,86.8l-8.3-0.1c-2.6,0-4-0.7-5.6-2.9
		l-44.6-58.5c0.2,2.6,0.3,5.2,0.3,7.3l-0.7,53.3l-14.2-0.2l1.2-86.8l8.5,0.1C580,206.2,580.8,206.6,582.6,208.9z"/>
	<path class="st0" d="M759,259.6l-9.5-1.7c-0.2,0-0.5-0.1-0.7-0.2c-1.3-0.5-2-1.6-2-3.3c0.2-4.4-1.2-8.8-6.3-10.9
		c-6.2-2.5-11.8,0.6-13.9,6c-1.8,4.5-1.5,8.8,1.4,15.7l12.4,30.8c4.3-3.7,8-8.4,10.6-13.5c0.9-1.7,2.3-2.4,4-1.7l8.6,3.5
		c-4,9.8-10.5,17.6-18.6,23.1l9.8,24.3l-13.5-5.4c-2.8-1.1-4-2.3-5.1-5.1l-3.3-8c-9.5,2.9-19.6,2.8-29.8-1.3
		c-12.4-5-21.3-18.8-15.6-33.1c4-9.9,14.2-15.4,25.4-16c-1.7-7.2-1.3-13.1,0.8-18.4c4.5-11.2,16.7-17.1,31-11.4
		C757.6,238.3,761.9,250.2,759,259.6z M709.8,301.9c6.5,2.6,12.7,2.6,18.6,0.8l-12.4-30.2c-7.5,1.4-12,5.3-14.3,10.9
		C698.5,291.5,702.6,298.9,709.8,301.9z"/>
	<path class="st0" d="M841.9,379.3l0.1,9.4c-11,1.7-21.7-1.5-32.4-11.2c-19-17.3-18.5-41.9-1.1-60.9c17.5-19.3,43.2-20.6,62.8-2.8
		c9.5,8.7,13.5,18.4,14.1,28l-9,1.9c-1.1,0.3-2.4,0.3-3.7-0.9c-2.7-2.5-0.4-9.6-10.7-19c-12.1-11-28.5-10.1-41.2,3.9
		c-13.1,14.4-12,30.6-1.2,40.4c6.5,5.9,11.5,8.1,18.6,8c1.1,0,2,0.2,2.8,0.9C841.6,377.6,841.8,378.3,841.9,379.3z"/>
	<path class="st0" d="M859.8,439c-13.9-22.3-7.2-47.3,14.4-60.8s47.1-8.3,60.9,14c13.8,22.3,7.1,47.3-14.5,60.7
		C899.1,466.3,873.7,461.2,859.8,439z M923.5,399.4c-9-14.4-24.4-17.3-40.5-7.3c-16.2,10-20.4,25.1-11.4,39.5
		c9,14.4,24.2,17.2,40.4,7.1C928.1,428.8,932.5,413.9,923.5,399.4z"/>
	<path class="st0" d="M902.9,485.1c1.8,4.7-0.5,9.9-5.3,11.7c-4.8,1.8-9.8-0.6-11.6-5.3c-1.8-4.8,0.4-9.9,5.2-11.7
		C895.9,478,901,480.2,902.9,485.1z"/>
</g>
<g>
	<path class="st0" d="M706.7,1125.4H700v-4.7h19.2v4.7h-6.8v20.3h-5.6V1125.4z"/>
	<path class="st0" d="M743.2,1136.1c-0.1-3-0.2-6.6-0.2-10.3h-0.1c-0.8,3.2-1.9,6.7-2.8,9.7l-3,9.8h-4.4l-2.7-9.7
		c-0.8-2.9-1.6-6.5-2.3-9.8h-0.1c-0.1,3.4-0.3,7.2-0.4,10.3l-0.5,9.5h-5.2l1.6-25h7.5l2.4,8.3c0.8,2.9,1.6,6,2.1,8.9h0.1
		c0.7-2.9,1.5-6.2,2.4-9l2.6-8.3h7.4l1.3,25h-5.5L743.2,1136.1z"/>
</g>
</svg>
