<?xml version="1.0" encoding="utf-8"?>
<!-- Generator: Adobe Illustrator 22.0.1, SVG Export Plug-In . SVG Version: 6.00 Build 0)  -->
<svg version="1.1" xmlns="http://www.w3.org/2000/svg" xmlns:xlink="http://www.w3.org/1999/xlink" x="0px" y="0px"
	 viewBox="0 0 4096 1024" style="enable-background:new 0 0 4096 1024;" xml:space="preserve">
<g id="Layer_2">
	<g>
		<path d="M1329.8,605.4c1.7,2.9,5.2,8.1,5.2,14.5c0,15.6-10.4,27.7-38.1,27.7c-16.8,0-26-7.5-26-24.3c0-8.1,1.2-15,3.5-19.7V336
			l-67.6,13.3c-4.6,2.9-11,5.8-17.9,5.8c-16.2,0-26.6-9.8-26.6-25.4c0-16.8,11.6-29.5,23.7-29.5c9.8,0,12.7,1.7,16.8,4l76.9-15.6
			c8.1-9.8,31.8-12.7,42.2-6.9l86.7-15.6c6.4-2.9,11.6-4,17.9-4c15,0,25.4,9.8,25.4,27.2c0,14.5-9.3,27.2-24.9,27.2
			c-8.1,0-12.7-1.7-17.3-4l-79.8,14.5V605.4z"/>
		<path d="M1617.6,474.1c0-19.7-2.9-24.9-12.7-24.9c-16.2,0-51.4,11-83.2,52v106.4c2.9,4,4.6,9.3,4.6,16.2
			c0,14.5-20.2,23.7-38.7,23.7c-17.3,0-23.7-6.4-23.7-18.5c0-9.2,1.2-15.6,4-19.1V310.6c-0.6-5.2-5.2-11.6-5.2-16.8
			c0-19.1,15.6-29.5,36.4-29.5c9.3,0,27.7,11.6,27.7,26c0,5.8-2.9,12.1-5.2,17.3v136.4h1.2c36.4-33.5,76.9-51.4,108.1-51.4
			c30.1,0,40.5,18.5,40.5,57.2v159.5c0.6,3.5,4.6,8.1,4.6,12.7c0,13.9-18.5,25.4-34.7,25.4c-17.3,0-30.1-7.5-30.1-19.7
			c0-6.4,1.7-14.5,6.4-19.1V474.1z"/>
		<path d="M1958.1,459.1c0,26-17.9,49.7-152,73.4l-26.6,4.6c-2.9,9.2-4,19.7-4,31.2c0,28.3,15,39.9,40.5,39.9
			c39.3,0,72.8-23.1,83.2-38.1c-1.7-13.9,9.8-25.4,28.9-25.4c21.4,0,26,13.3,26,24.9c0,16.2-50.3,84.4-145.1,84.4
			c-49.1,0-86.1-21.4-86.1-81.5c0-106.9,75.1-184.4,150.3-184.4C1939,388,1958.1,436.6,1958.1,459.1z M1790.5,496.1
			c101.7-17.9,116.2-26.6,116.2-34.7c0-13.9-9.8-28.9-34.7-28.9C1838.4,432.5,1807.2,459.1,1790.5,496.1z"/>
		<path d="M2176,600.2l109.8-13.9c4.6-2.9,15-7.5,20.2-7.5c10.4,0,26,6.9,26,25.4c0,22.5-11.6,32.9-23.7,32.9
			c-4.6,0-11.6-1.2-16.8-2.9l-121.4,15c-5.8,1.7-16.8,4-24.9,4c-19.1,0-32.4-8.7-32.4-27.2c0-9.2,2.9-16.2,7.5-19.7V319.2
			c-1.7-3.5-4-9.8-4-15.6c0-23.7,17.3-31.8,34.1-31.8c15,0,31.2,6.4,31.2,30.6c0,5.8-3.5,12.1-5.8,16.8V600.2z"/>
		<path d="M2377.8,440c-3.5-3.5-5.2-9.8-5.2-15c0-16.2,1.2-33.5,36.4-33.5c13.3,0,28.9,15,28.9,26.6c0,10.4-5.2,16.2-6.4,19.7V603
			c2.9,2.3,7.5,9.3,7.5,16.2c0,19.7-24.3,28.3-42.2,28.3c-15,0-26-10.4-26-27.2c0-10.4,4.6-16.8,6.9-19.7V440z M2438.5,307.7
			c0,34.1-16.2,53.8-34.7,53.8c-18.5,0-26-11.6-26-28.3c0-28.9,12.7-52,34.7-52C2429.2,281.1,2438.5,290.9,2438.5,307.7z"/>
		<path d="M2502,316.3c-2.3-5.2-5.8-12.7-5.8-19.7c0-24.9,6.9-31.2,35.8-31.2c15,0,32.4,9.8,32.4,27.2c0,10.4-3.5,17.9-8.7,25.4
			v287.9c6.4,5.2,9.3,11,9.3,17.3c0,9.8-14.5,24.3-34.7,24.3c-17.9,0-33.5-9.8-33.5-27.7c0-5.8,2.3-10.4,5.2-15.6V316.3z"/>
		<path d="M2609.6,441.2c-8.1-5.8-11.6-11.6-11.6-22.5c0-16.2,19.1-26,31.2-26c22,0,30.6,14.5,28.9,30.1l84.4,147.4l59.5-153.2
			c0-12.1,6.4-26.6,26.6-26.6c19.1,0,32.4,9.8,32.4,24.3c0,8.7-4.6,16.2-12.7,20.8l-102.9,249.7c-25.4,63-55.5,76.9-90.2,76.9
			c-30.1,0-59-16.2-68.8-49.1c-3.5-9.8-9.8-6.4-9.8-20.2c0-15.6,11-26.6,27.7-26.6c17.9,0,29.5,6.4,29.5,21.4
			c0,4.6-1.7,8.7-2.3,12.7c0,8.7,10.4,17.3,23.7,17.3c21.4,0,37-23.1,62.4-89L2609.6,441.2z"/>
		<path d="M3010.7,391.5c-9.2-1.2-16.2-9.2-16.2-24.9c0-15.6,6.9-25.4,16.2-30.6v-20.8c-1.7-3.5-2.9-9.8-2.9-15.6
			c0-14.5,17.9-24.9,29.5-24.9c22,0,32.9,11,28.3,29.5v6.9c32.9-16.8,71.7-38.7,136.4-38.7c53.8,0,80.9,23.7,80.9,61.3
			c0,63.6-87.9,135.3-216.8,155.5v117.9c2.9,4,6.4,9.2,6.4,15c0,20.8-6.4,25.4-39.3,25.4c-19.1,0-29.5-11.6-29.5-24.3
			c0-8.1,1.7-12.7,6.9-19.1V391.5z M3066.2,441.2c101.7-15,159.5-61.3,159-94.8c0-12.1-13.3-24.3-41-24.3
			c-36.4,0-73.4,12.1-117.9,39.9V441.2z"/>
		<path d="M3430.4,448.7c0-15-5.2-22.5-20.2-22.5c-31.8,0-58.4,11-79.8,24.3c1.2,4.6-7.5,16.2-24.3,16.2
			c-13.9,0-24.3-15.6-24.3-27.2c0-11,14.4-26,26.6-23.7c29.5-19.1,69.4-31.8,122-31.8c29.5,0,52.6,19.1,52.6,52v177.5
			c2.3,1.7,4.6,8.1,4.6,13.3c0,17.3-20.8,21.4-38.1,21.4c-19.1,0-24.9-8.7-24.9-17.9c0-5.2,2.3-9.8,4.6-13.9v-26h-0.6
			c-41,45.1-80.9,65.3-128.9,65.3c-29.5,0-53.2-16.8-53.2-46.8c0-50.9,63-116.2,183.8-130.6V448.7z M3429.2,514.6
			c-76.3,8.7-129.5,54.9-129.5,80.9c0,10.4,8.1,13.3,19.7,13.3c42.2,0,109.8-50.3,109.8-76.3V514.6z"/>
		<path d="M3733.3,310.6c-5.8-3.5-8.1-11-8.1-20.2c0-14.5,14.5-24.9,34.7-24.9c19.1,0,28.3,12.7,28.3,26.6l-1.7,19.7v297.7
			c2.9,1.7,7.5,7.5,7.5,14.5c0,17.3-11,24.3-35.3,24.3c-19.7,0-28.3-8.1-28.3-23.1c0-5.8,0-11,2.9-13.3v-39.9
			c-28.9,43.4-90.2,83.2-141,83.2c-34.1,0-64.2-23.1-64.2-68.2c0-90.8,93.1-181.5,166.5-181.5c16.2,0,27.7,2.9,38.7,9.8V310.6z
			 M3583,575.3c0,17.9,5.8,30.6,27.2,30.6c28.3,0,57.8-20.8,81.5-46.2c23.1-22.5,40.5-39.3,40.5-72.3c0-22-12.1-38.1-37-38.1
			C3647.7,449.3,3583,527.9,3583,575.3z"/>
	</g>
</g>
<g id="Layer_3">
	<g>
		<path d="M469,915.7c-12.6,0.5-25.4,0.7-38.2,0.7c-100.5,0-194.4-14.8-251-39.7c-8.4-3.7-15.7-7.7-22.1-12c0.3,0.3,0.5,0.5,0.8,0.8
			c45.9,45.9,99.4,82,158.9,107.2C379,998.8,444.5,1012,512,1012c67.5,0,133-13.2,194.6-39.3c59.5-25.2,113-61.2,158.9-107.2
			c22.3-22.3,42.3-46.5,59.9-72.2c-31,27.4-85.6,52-168.4,76.1C693.6,887.9,592.1,911,469,915.7z"/>
		<path d="M149.5,774c7.8-7,17.8-13.7,30.2-20c-23.7-5.3-43-11.3-59-18.2c-20.1-8.7-35.1-19.3-44.7-31.7
			c-12.9-16.7-15.8-36.9-7.9-55.3c10.9-25.6,41.1-46.1,95.1-64.6c-7.8-0.7-15.1-1.4-20.4-1.8c-41.5-3.1-81.9,10.8-122.4,22.2
			c6.5,34.9,16.8,69,30.8,102C71.7,755,99.4,799.4,133.7,839c-2.3-4.6-3.9-9.5-4.7-14.6C127.3,814.1,127.7,793.7,149.5,774z"/>
		<path d="M921.9,578c-24.1,2.3-66.6,9-98.8,14.4l0,0c17.9,6.6,34.4,13.8,49.1,21.6c42.6,22.5,70.1,48.9,81.8,78.3
			c5.7,14.4,7.4,29.3,5,43.8c4.9-9.7,9.4-19.5,13.7-29.6c15.8-37.3,26.8-75.9,33.1-115.6C977.9,583.5,950,575.3,921.9,578z"/>
		<path d="M240.1,594.1c-23.9,5.1-46.4,11.1-67,18.1c-38.4,13.1-69.6,29.6-77.5,48.2c-7.4,17.4,6,34.8,37,48.1
			c28.6,12.3,67.9,20.5,109.4,26.7c19.6,2.9,45.4,6.5,70.3,7.1c1.5-0.3,3.1-0.6,4.6-0.9c0.4-0.1,0.9-0.1,1.3-0.2
			c0.3,0.7,0.7,1.4,1,2.1c0,0,0,0-0.1,0c-3.5,0.6-7.1,1.3-10.6,2c-11.9,2.4-23.5,4.9-34.7,7.7c-44.1,10.9-84.7,25.3-104.4,43.1
			c-21,19-12.7,38.2,22.2,53.5c55.8,24.5,148.2,37.2,239.1,37.2c12.4,0,24.8-0.2,37.1-0.7c102.8-4,200.8-21.8,280.8-45.1
			c75.4-22,145.7-50.1,169.9-83.7c41-57-27.7-119.6-158-153.1l0,0c-78.8,16.4-156.8,37.7-236.8,38.2
			C427.9,642.8,334.7,610.9,240.1,594.1"/>
		<path d="M972.7,317.4c-25.2-59.5-61.2-113-107.2-158.9c-45.9-45.9-99.4-82-158.9-107.2C645,25.2,579.5,12,512,12
			c-67.5,0-133,13.2-194.6,39.3c-59.5,25.2-113,61.2-158.9,107.2c-45.9,45.9-82,99.4-107.2,158.9C25.2,379,12,444.5,12,512
			c0,17.5,0.9,34.8,2.7,51.9c24.5-6.6,48.8-13.7,73.4-18.4c-18.1-18.3-20.3-43.1-19.9-68.9c23.6-10.8,47.3-20.5,72.2-19.7
			c-10.2-32.2-10.2-73-15.4-103.9c24.5-8.1,50.4-13.5,74.9-15.1c-7.3-34.2-9.1-68.3-5.2-102.7c43.1-0.2,81.3,5.4,110,22.6
			c4.1-29.7,7.3-59.3,7.7-88.4c30.3,38.2,66.6,73,100.4,109.1c20.5-57.3,47.9-107.5,79.2-145c44,41.3,73.9,95.6,86.7,147.3
			c21.4-33.6,43.2-67,62.7-101.4c5.2,29.7,15.4,59.9,25.9,90c29.3-20.5,70.1-26.8,116.2-26.4c3.3,29.2,2.5,58.5-2.5,87.7
			c16-0.4,32.6,1.2,50,4.4c-8.1,36.9-5.2,80.5-9.8,119.3c28.6-3.3,59.3,3.9,81.9,13.7c-5.6,25.7-1.9,44.6-6.6,64.1
			c6.8-0.8,13.5-1.4,20.3-1.7c31.9-2.2,63.1,5.9,94.3,14.1c0.7-10.8,1-21.7,1-32.6C1012,444.5,998.8,379,972.7,317.4z"/>
		<path d="M300,292.2c-21.8-9.8-43.6-13.5-65.4-11c-5,19.1-4.8,38-2.7,57c23.4,2.1,44.4,8.7,61.2,20.7
			C294.4,336.8,297.1,314.6,300,292.2z"/>
		<path d="M747.2,335.5c1-15.6,0.4-31.1-3.7-46.7c-22-2.5-43.8,1.2-65.8,11.2c7,20.8,13.3,41.5,17.6,62
			C710.9,348.8,728.3,340.3,747.2,335.5z"/>
		<path d="M151.6,481.5c-18,0.2-35.3,3.9-51.6,13.5c-0.4,19.3,4.4,34.6,12.9,46.7c10.6-1.2,21.2-1.5,31.9-1.2
			c44.7,1.3,89,8.1,133.3,16.5c1.2,0.2,2.5,0.5,3.7,0.7c-0.8-0.3-1.7-0.6-2.5-0.9c-41.5-14.5-81-32.5-114.7-60.3
			C159.5,492.3,155.2,487.1,151.6,481.5z"/>
		<path d="M200.6,480.7c45.4,31.3,102.9,48.1,159.1,65.3c-22.6-16.2-41.3-35.5-51.4-61.4c-11.2-28.8-15.6-58.7-16.2-89.6
			c-31.9-20.5-65.6-21.2-101.4,0C189.4,421.6,179.2,465.8,200.6,480.7z"/>
		<path d="M816.1,482.2c-5.2,19.5-13.9,36.7-29,50.2c-11,9.8-22.6,18.1-34.2,25.1c37.3-8.3,74.5-16.2,112.2-21.4
			c0-12.2-3.1-23.2-1-39.6C852.4,488.4,834.1,482.8,816.1,482.2z"/>
		<path d="M607.4,549.4c50.6-6.9,99.2-18.5,141.7-52.9c37.5-30.1,31.5-80.9,38-119.5c-33-4.4-61.2,9.3-86.5,26.1
			c0.8,20.9-1.7,41.3-9.3,61.6C676.9,503.3,644.7,528.4,607.4,549.4z"/>
		<path d="M336.3,454.6c14,35.7,54.7,63,90.3,89.2c13,9.5,25.3,18.9,35.4,28.5c0.1-9.2,1-19,2.2-29.1c5.2-44.8,16.7-96.6,1.9-134.4
			c-24.1-61.2-87.1-101.7-127.8-153.5C340.4,321.2,312.2,393.6,336.3,454.6z"/>
		<path d="M496,219.5c-25.3,25.3-43.1,56.2-53.1,92.9c25.9,30.7,48.5,63.3,62.9,100.6c0.2,0.2,0.2,0.4,0.2,0.4
			c12.9-31.5,29.3-61.6,47.1-91.1C543.1,282.4,526.1,246.9,496,219.5z"/>
		<path d="M533.6,440.7c-11.5,32-12.5,68.6-14.6,103.3c-0.4,6.2-0.8,12.3-1.3,18.3c6.8-6.3,14.4-12,22.4-17.5
			c45.6-31.1,105.3-52.5,123.2-102.3c19.3-53.9-23.4-120.9-34-177.4C597.6,323.9,556.2,378.2,533.6,440.7z"/>
	</g>
</g>
</svg>
