<?xml version="1.0" encoding="utf-8"?>
<!-- Generator: Adobe Illustrator 20.0.0, SVG Export Plug-In . SVG Version: 6.00 Build 0)  -->
<svg version="1.1" xmlns="http://www.w3.org/2000/svg" xmlns:xlink="http://www.w3.org/1999/xlink" x="0px" y="0px"
	 viewBox="0 0 72 72" style="enable-background:new 0 0 72 72;" xml:space="preserve">
<g id="Layer_1">
	<g id="Layer_1_1_">
	</g>
	<g>
		<path d="M49.8,2.3c0.7,0,1.3,0.6,1.3,1.3v6.4c0,0.7-0.6,1.3-1.3,1.3H22.2c-0.7,0-1.3-0.6-1.3-1.3V3.5c0-0.7,0.6-1.3,1.3-1.3H49.8
			 M49.8,0H22.2c-2,0-3.5,1.6-3.5,3.5v6.4c0,2,1.6,3.5,3.5,3.5h27.6c2,0,3.5-1.6,3.5-3.5V3.5C53.3,1.6,51.7,0,49.8,0L49.8,0z"/>
		<path d="M50.4,14.8H21.6c-5,0-9,4.1-9,9v42.3c0,3.2,2.6,5.8,5.8,5.8h35.3c3.2,0,5.8-2.6,5.8-5.8V23.9
			C59.4,18.9,55.4,14.8,50.4,14.8z"/>
	</g>
</g>
<g id="Layer_2">
</g>
</svg>
