<?xml version="1.0" encoding="utf-8"?>
<!-- Generator: Adobe Illustrator 20.0.0, SVG Export Plug-In . SVG Version: 6.00 Build 0)  -->
<svg version="1.1" xmlns="http://www.w3.org/2000/svg" xmlns:xlink="http://www.w3.org/1999/xlink" x="0px" y="0px"
	 viewBox="0 0 72 72" style="enable-background:new 0 0 72 72;" xml:space="preserve">
<g id="Layer_1">
</g>
<g id="Layer_3">
	<path d="M61.5,10.6L61.5,10.6c-4.8-4.8-12.5-4.8-17.2,0L27.4,27.4L10.5,44.3c-0.3,0.3-0.6,0.6-0.8,0.9c-1.3,1.6-2.1,3.4-2.5,5.3
		C7,51.7,6.9,52.9,7,54c0.1,1.6,0.6,3.1,1.3,4.5c0.2,0.4,0.4,0.7,0.6,1c0.4,0.7,1,1.3,1.5,1.9l0,0l0,0c1.5,1.5,3.2,2.5,5.1,3
		c0.8,0.2,1.5,0.4,2.3,0.4c1.2,0.1,2.3,0.1,3.5-0.2c1.9-0.4,3.8-1.2,5.3-2.5c0.3-0.3,0.6-0.5,0.9-0.8l16.9-16.9l16.9-16.9
		C66.2,23,66.2,15.3,61.5,10.6z M28.8,28.8l16.9-16.9c4-4,10.4-4,14.3,0l0,0c4,4,4,10.4,0,14.3L43.2,43.2L28.8,28.8z"/>
</g>
</svg>
